<?xml version="1.0" standalone="no"?>
<!DOCTYPE svg PUBLIC "-//W3C//DTD SVG 1.1//EN" "http://www.w3.org/Graphics/SVG/1.1/DTD/svg11.dtd" >
<svg>
<metadata>
Created by FontForge 20110222 at Thu Aug 21 14:51:53 2014
 By Orthosie Webhosting
Copyright (c) 2007 the National Football League. All rights reserved.
</metadata>
<defs>
<font id="EndzoneSlabLightItalic" horiz-adv-x="570" >
  <font-face 
    font-family="EndzoneSlabLightItalic"
    font-weight="450"
    font-style="italic"
    font-stretch="normal"
    units-per-em="1000"
    panose-1="0 0 0 0 0 0 0 0 0 0"
    ascent="750"
    descent="-250"
    x-height="520"
    cap-height="700"
    bbox="-67 -200 1164.83 890"
    underline-thickness="50"
    underline-position="-50"
    unicode-range="U+0020-FB02"
  />
<missing-glyph horiz-adv-x="280" 
 />
    <glyph glyph-name="fi" unicode="fi" horiz-adv-x="641" 
d="M576 0h-190l6 49l59 14l52 394l-55 14l6 49h133l-60 -457l55 -14zM509 655q2 21 18.5 35.5t37.5 14.5t33.5 -14.5t10.5 -35.5q-3 -21 -19.5 -35.5t-37.5 -14.5t-33.5 14.5t-9.5 35.5zM142 -190h-76l85 644h-77l7 52l80 19l13 100q7 57 48 86t104 29q43 0 87 -11l-8 -65
q-35 9 -79 9q-71 0 -77 -57l-13 -96h125l-9 -66h-125z" />
    <glyph glyph-name="fl" unicode="fl" horiz-adv-x="636" 
d="M571 0h-190l6 49l59 14l79 604l-55 14l7 49h133l-88 -667l55 -14zM142 -190h-76l85 644h-77l7 52l80 19l13 100q7 57 48 86t104 29q43 0 87 -11l-8 -65q-35 9 -79 9q-71 0 -77 -57l-13 -96h125l-9 -66h-125z" />
    <glyph glyph-name=".notdef" horiz-adv-x="280" 
 />
    <glyph glyph-name=".notdef" horiz-adv-x="280" 
 />
    <glyph glyph-name=".null" horiz-adv-x="0" 
 />
    <glyph glyph-name="nonmarkingreturn" horiz-adv-x="333" 
 />
    <glyph glyph-name="space" unicode=" " horiz-adv-x="225" 
 />
    <glyph glyph-name="exclam" unicode="!" horiz-adv-x="250" 
d="M102 215l35 485h100l-94 -485h-41zM48 42q3 22 20 37t39 15t35 -15t10 -37t-20 -37t-39 -15t-35 15t-10 37z" />
    <glyph glyph-name="quotedbl" unicode="&#x22;" horiz-adv-x="320" 
d="M95 460l12 240h90l-52 -240h-50zM235 460l12 240h90l-52 -240h-50z" />
    <glyph glyph-name="numbersign" unicode="#" horiz-adv-x="600" 
d="M83 520h100l22 170h70l-22 -170h170l22 170h70l-22 -170h100l-9 -70h-100l-28 -210h100l-9 -70h-100l-22 -170h-70l22 170h-170l-22 -170h-70l22 170h-100l9 70h100l28 210h-100zM244 450l-28 -210h170l28 210h-170z" />
    <glyph glyph-name="dollar" unicode="$" horiz-adv-x="604" 
d="M236 163q153 0 162 77q6 42 -23 58.5t-105 23.5q-107 9 -151 40t-36 92q10 77 70 111t180 34l51 92h75l-59 -101q50 -10 93 -36l-36 -62q-73 40 -152 40q-69 0 -104.5 -14t-41.5 -57q-5 -39 25.5 -53t104.5 -19q104 -8 149 -40.5t36 -102.5q-20 -150 -256 -150l-52 -96
h-75l59 102q-67 11 -123 47l36 62q83 -48 173 -48z" />
    <glyph glyph-name="percent" unicode="%" horiz-adv-x="840" 
d="M164 560l-10 -80q-6 -40 12.5 -57.5t61.5 -17.5q42 0 65 17.5t29 57.5l10 80q5 40 -13.5 57.5t-60.5 17.5q-43 0 -66 -17.5t-28 -57.5zM408 555l-10 -70q-18 -145 -179 -145q-159 0 -141 145l10 70q18 145 179 145q159 0 141 -145zM215 0h-92l534 700h92zM707 140l10 80
q6 40 -12.5 57.5t-61.5 17.5q-42 0 -65 -17.5t-29 -57.5l-10 -80q-5 -40 13.5 -57.5t60.5 -17.5q43 0 66 17.5t28 57.5zM464 145l9 70q18 145 179 145q159 0 141 -145l-9 -70q-20 -145 -179 -145q-161 0 -141 145z" />
    <glyph glyph-name="ampersand" unicode="&#x26;" horiz-adv-x="680" 
d="M504 550q-8 -66 -59.5 -109t-153.5 -85q57 -85 173 -184q60 72 87 186l-52 13l7 49h183l-7 -49l-52 -13q-33 -137 -112 -230q57 -43 101 -72l-52 -66q-53 33 -111 78q-99 -78 -222 -78q-97 0 -151 47t-41 152q17 122 143 189q-40 84 -30 162q10 80 61 125t142 45
q166 0 146 -160zM402 113q-122 107 -186 210q-84 -45 -96 -134q-8 -62 26 -94t98 -32q87 0 158 50zM234 542q-8 -58 26 -131q92 39 127 65t41 76q11 89 -79 89q-45 0 -77 -24.5t-38 -74.5z" />
    <glyph glyph-name="quotesingle" unicode="'" horiz-adv-x="180" 
d="M95 460l12 240h90l-52 -240h-50z" />
    <glyph glyph-name="parenleft" unicode="(" horiz-adv-x="220" 
d="M129 300q-10 -75 -11.5 -140.5t5 -119.5t14.5 -90t20 -80h-70q-75 187 -43 430q32 245 157 430h70q-51 -91 -87 -190t-55 -240z" />
    <glyph glyph-name="parenright" unicode=")" horiz-adv-x="220" 
d="M109 300q10 75 11.5 140.5t-5 119.5t-14.5 90t-20 80h70q75 -187 43 -430q-32 -245 -157 -430h-69q111 202 141 430z" />
    <glyph glyph-name="asterisk" unicode="*" horiz-adv-x="340" 
d="M85 585l16 36l93 -17l27 96h38v-96l98 17l8 -36l-94 -43l36 -86l-34 -22l-59 70l-77 -70l-28 22l57 86z" />
    <glyph glyph-name="plus" unicode="+" horiz-adv-x="550" 
d="M50 380h210l27 210h70l-27 -210h210l-10 -70h-210l-27 -210h-70l27 210h-210z" />
    <glyph glyph-name="comma" unicode="," horiz-adv-x="250" 
d="M152 41q-6 -50 -31.5 -87t-69.5 -75l-27 22q45 40 48 67q2 17 -12.5 36.5t-11.5 38.5q3 21 20 36t39 15q21 0 34.5 -15t10.5 -38z" />
    <glyph glyph-name="hyphen" unicode="-" horiz-adv-x="350" 
d="M303 333l-8 -67h-230l8 67h230z" />
    <glyph glyph-name="period" unicode="." horiz-adv-x="250" 
d="M48 42q3 22 20 37t39 15t35 -15t10 -37t-20 -37t-39 -15t-35 15t-10 37z" />
    <glyph glyph-name="slash" unicode="/" horiz-adv-x="500" 
d="M101 -30h-90l420 760h90z" />
    <glyph glyph-name="zero" unicode="0" horiz-adv-x="608" 
d="M356 629q-52 0 -87.5 -11.5t-54.5 -35t-27.5 -49t-13.5 -63.5l-33 -250q-6 -34 -3 -63t15.5 -50.5t45 -33.5t84.5 -12t87.5 11.5t54 35t27 49t13.5 63.5l33 250q11 79 -15.5 119t-125.5 40zM366 700q115 0 173 -51t44 -159l-38 -290q-14 -108 -86 -159t-187 -51t-173 51
t-44 159l38 290q14 108 86 159t187 51z" />
    <glyph glyph-name="one" unicode="1" horiz-adv-x="365" 
d="M117 676l117 29h62l-83 -631l94 -25l-6 -49h-272l6 49l100 25l73 556l-98 -8z" />
    <glyph glyph-name="two" unicode="2" horiz-adv-x="578" 
d="M470 160h51l-21 -160h-484l7 57q15 110 69.5 169.5t195.5 126.5q11 5 39.5 18t37 17.5t29 15t27 16l19.5 16.5t17.5 20t9.5 22t7 28v2q9 66 -22.5 96t-112.5 30q-147 0 -161 -114v-2h-79v2q5 83 71 131.5t178 48.5q126 0 172 -47.5t34 -143.5l-1 -2q-4 -30 -16.5 -54.5
t-28.5 -42.5t-50.5 -39.5t-65.5 -37t-89 -43.5q-111 -52 -150 -94t-51 -131l331 2z" />
    <glyph glyph-name="three" unicode="3" horiz-adv-x="577" 
d="M244 -10q-128 0 -178.5 49t-32.5 136v2h74v-2q-10 -64 19 -91.5t127 -27.5t145 33.5t56 101.5v2q19 144 -148 144h-79l8 59h79q136 0 153 122v2q8 58 -24 86t-112 28q-152 0 -166 -114v-2h-74v2q5 83 71 131.5t178 48.5q125 0 171 -47t34 -138v-2q-14 -107 -105 -145
q110 -42 93 -174v-2q-14 -105 -84 -153.5t-205 -48.5z" />
    <glyph glyph-name="four" unicode="4" horiz-adv-x="567" 
d="M32 261l354 444h92l-59 -452h108l-8 -63h-108l-17 -124l65 -17l-6 -49h-212l6 49l69 17l17 124h-310zM341 253l47 357l-285 -357h238z" />
    <glyph glyph-name="five" unicode="5" horiz-adv-x="599" 
d="M250 -10q-119 0 -171.5 50t-34.5 135v2h74v-2q-9 -62 23 -90.5t118 -28.5q101 0 150 41t59 123l1 2q11 82 -25 123t-107 41q-159 0 -206 -100h-63l54 409h458l-10 -73l-379 4l-32 -240q78 66 202 66q108 0 154.5 -59t32.5 -171l-1 -2q-16 -119 -89 -174.5t-208 -55.5z
" />
    <glyph glyph-name="six" unicode="6" horiz-adv-x="601" 
d="M558 230q-17 -122 -87.5 -181t-201.5 -59q-138 0 -187 73.5t-31 205.5v2q12 86 49 160t91.5 127.5t116 90.5t129.5 61l94 -17l-2 -10q-128 -43 -234 -126t-149 -207q87 97 223 97q218 0 189 -215v-2zM478 224v2q20 153 -133 153q-66 0 -126 -36t-94 -83l-1 -2
q-13 -106 26.5 -154.5t127.5 -48.5q93 0 141 41t59 128z" />
    <glyph glyph-name="seven" unicode="7" horiz-adv-x="548" 
d="M572 695l-8 -62q-140 -137 -215.5 -279.5t-102.5 -353.5h-85q25 188 109 347.5t212 282.5l-310 -2l-33 -83h-51l20 150h464z" />
    <glyph glyph-name="eight" unicode="8" horiz-adv-x="588" 
d="M465 191v2q9 71 -28 107.5t-129 36.5q-176 0 -195 -144v-2q-9 -68 27 -101.5t131 -33.5t140 33.5t54 101.5zM316 396q145 0 162 122v2q8 57 -23 85.5t-108 28.5q-76 0 -114.5 -28.5t-46.5 -85.5v-2q-8 -61 23 -91.5t107 -30.5zM262 -10q-132 0 -187 48.5t-41 153.5v2
q17 132 138 174q-80 38 -66 145v2q12 91 70 138t180 47t167 -47t33 -138v-2q-14 -107 -105 -145q110 -42 93 -174v-2q-14 -105 -82 -153.5t-200 -48.5z" />
    <glyph glyph-name="nine" unicode="9" horiz-adv-x="601" 
d="M73 460q17 122 87.5 181t201.5 59q138 0 186.5 -73t31.5 -206v-2q-12 -86 -49 -160t-91.5 -127.5t-116 -90.5t-129.5 -61l-94 17l1 10q59 20 114 48t109 68t96 96t65 121q-87 -97 -224 -97q-217 0 -188 215v2zM153 466v-2q-21 -153 132 -153q66 0 126.5 36t94.5 83v2
q14 106 -25.5 154.5t-127.5 48.5q-93 0 -141 -41t-59 -128z" />
    <glyph glyph-name="colon" unicode=":" horiz-adv-x="250" 
d="M48 42q3 22 20 37t39 15t35 -15t10 -37t-20 -37t-39 -15t-35 15t-10 37zM96 410q3 22 20 37t39 15t35 -15t10 -37q-2 -22 -19 -37t-39 -15t-35 15t-11 37z" />
    <glyph glyph-name="semicolon" unicode=";" horiz-adv-x="250" 
d="M96 410q3 22 20 37t39 15t35 -15t10 -37q-2 -22 -19 -37t-39 -15t-35 15t-11 37zM152 41q-6 -50 -31.5 -87t-69.5 -75l-27 22q45 40 48 67q2 17 -12.5 36.5t-11.5 38.5q3 21 20 36t39 15q21 0 34.5 -15t10.5 -38z" />
    <glyph glyph-name="less" unicode="&#x3c;" horiz-adv-x="550" 
d="M503 100l-463 210l10 70l517 210l-10 -75l-429 -170l385 -170z" />
    <glyph glyph-name="equal" unicode="=" horiz-adv-x="550" 
d="M36 280h490l-9 -70h-490zM63 480h490l-10 -70h-490z" />
    <glyph glyph-name="greater" unicode="&#x3e;" horiz-adv-x="550" 
d="M530 310l-517 -210l10 75l428 170l-384 170l10 75l463 -210z" />
    <glyph glyph-name="question" unicode="?" horiz-adv-x="510" 
d="M150 42q3 22 20 37t39 15t35 -15t10 -37t-20 -37t-39 -15t-35 15t-10 37zM245 215h-39q-23 75 0.5 119t101.5 83q39 20 50 25.5t32 21.5t28.5 33t11.5 43q8 59 -22.5 78.5t-102.5 19.5q-96 0 -186 -47l-21 66q95 53 217 53q116 0 160.5 -40.5t33.5 -129.5
q-3 -24 -9.5 -43.5t-22.5 -37.5t-26 -28.5t-38 -27.5t-40 -23.5t-51 -26.5q-48 -25 -64.5 -54t-12.5 -84z" />
    <glyph glyph-name="at" unicode="@" horiz-adv-x="814" 
d="M568 117q57 0 98 51.5t53 149.5q18 135 -42.5 192.5t-220.5 57.5q-158 0 -239.5 -76t-102.5 -237t40.5 -237t219.5 -76q177 0 286 39l12 -55q-105 -46 -306 -46q-190 0 -269 93.5t-54 281.5t128 281.5t293 93.5q188 0 265 -79t56 -238q-10 -71 -35.5 -126.5t-78 -93.5
t-125.5 -38h-57l8 65q-59 -75 -165 -75q-150 0 -127 180l8 60q11 87 55.5 133.5t119.5 46.5q104 0 145 -75l8 65h71zM518 313q-41 84 -117 84q-50 0 -75.5 -25t-33.5 -87l-8 -60q-8 -62 10.5 -87t68.5 -25q77 0 139 84z" />
    <glyph glyph-name="A" unicode="A" horiz-adv-x="695" 
d="M205 200l-63 -134l65 -17l-6 -49h-206l6 51l59 15l306 634h87l138 -634l55 -15l-6 -51h-212l6 49l69 17l-27 134h-271zM395 607l-159 -340h227z" />
    <glyph glyph-name="B" unicode="B" horiz-adv-x="651" 
d="M112 700h318q116 0 162.5 -39.5t33.5 -141.5v-2q-16 -115 -113 -146q58 -15 84 -59.5t17 -112.5l-1 -2q-13 -104 -72 -150.5t-173 -46.5h-348l6 51l59 15l75 568l-55 15zM534 198q9 72 -20.5 103.5t-116.5 31.5h-197l-35 -266h194q88 0 127 31t48 100zM546 517
q9 68 -21 92t-121 24h-164l-31 -234h184q77 0 110.5 26.5t42.5 91.5z" />
    <glyph glyph-name="C" unicode="C" horiz-adv-x="625" 
d="M548 26q-80 -36 -224 -36q-172 0 -230.5 85t-33.5 274l1 2q25 189 105 274t253 85q143 0 214 -36l-17 -134h-51l-12 89q-50 14 -143 14q-133 0 -188.5 -62.5t-77.5 -229.5l-1 -2q-22 -167 17.5 -229.5t172.5 -62.5q92 0 147 14l35 89h51z" />
    <glyph glyph-name="D" unicode="D" horiz-adv-x="674" 
d="M306 0h-286l6 51l59 15l75 568l-55 15l7 51h286q170 0 221 -81.5t26 -267.5l-1 -2q-12 -93 -32.5 -154.5t-59 -107.5t-98.5 -66.5t-148 -20.5zM240 633l-75 -566h159q64 1 104.5 15.5t67 50.5t40.5 85t25 131l1 2q21 159 -10.5 219t-152.5 63h-159z" />
    <glyph glyph-name="E" unicode="E" horiz-adv-x="614" 
d="M199 326l-34 -259h312l37 93h51l-21 -160h-524l6 51l59 15l75 568l-55 15l7 51h524l-21 -160h-51l-12 93h-312l-32 -240h212l26 67h49l-26 -201h-49l-9 67h-212z" />
    <glyph glyph-name="F" unicode="F" horiz-adv-x="594" 
d="M493 445l-26 -201h-49l-9 67h-212l-32 -245l65 -17l-6 -49h-204l6 51l59 15l75 568l-55 15l7 51h524l-21 -160h-51l-12 93h-312l-34 -255h212l26 67h49z" />
    <glyph glyph-name="G" unicode="G" horiz-adv-x="674" 
d="M451 291l6 49h204l-6 -51l-59 -15l-36 -274h-60l-9 46q-84 -56 -182 -56q-159 0 -216 86t-33 273l1 2q24 186 109.5 272.5t253.5 86.5q153 0 224 -36l-17 -134h-51l-12 88q-57 15 -153 15q-129 0 -189 -64t-82 -228l-1 -2q-22 -165 16.5 -228.5t158.5 -63.5q100 0 177 57
l21 160z" />
    <glyph glyph-name="H" unicode="H" horiz-adv-x="740" 
d="M565 326h-366l-34 -260l65 -17l-6 -49h-204l6 51l59 15l75 568l-55 15l7 51h204l-7 -49l-69 -17l-32 -241h366l32 241l-65 17l7 49h204l-7 -51l-59 -15l-75 -568l55 -15l-6 -51h-204l6 49l69 17z" />
    <glyph glyph-name="I" unicode="I" horiz-adv-x="324" 
d="M239 0h-214l6 49l69 17l75 568l-65 17l7 49h214l-7 -49l-69 -17l-75 -568l65 -17z" />
    <glyph glyph-name="J" unicode="J" horiz-adv-x="369" 
d="M187 116l68 518l-65 17l7 49h204l-7 -51l-59 -15l-68 -516q-9 -64 -49.5 -96t-103.5 -32q-61 0 -98 22l23 66q36 -19 73 -19q67 0 75 57z" />
    <glyph glyph-name="K" unicode="K" horiz-adv-x="659" 
d="M601 634l-239 -238l196 -330l55 -15l-6 -51h-206l6 50l53 13l-157 274l-118 -117l-20 -154l65 -17l-6 -49h-204l6 51l59 15l75 568l-55 15l7 51h204l-7 -49l-69 -17l-41 -309l309 312l-47 13l7 50h201l-7 -51z" />
    <glyph glyph-name="L" unicode="L" horiz-adv-x="534" 
d="M240 634l-75 -567h252l37 93h51l-21 -160h-464l6 51l59 15l75 568l-55 15l7 51h204l-7 -49z" />
    <glyph glyph-name="M" unicode="M" horiz-adv-x="850" 
d="M266 700l157 -483l285 483h154l-7 -51l-59 -15l-75 -568l55 -15l-6 -51h-204l6 49l69 17l73 506l-264 -442h-76l-148 442l-61 -506l65 -17l-6 -49h-204l6 51l59 15l75 568l-55 15l7 51h154z" />
    <glyph glyph-name="N" unicode="N" horiz-adv-x="740" 
d="M623 0h-100l-293 596l-65 -530l65 -17l-6 -49h-204l6 51l59 15l75 568l-55 15l7 51h158l291 -596l65 530l-65 17l7 49h204l-7 -51l-59 -15z" />
    <glyph glyph-name="O" unicode="O" horiz-adv-x="692" 
d="M60 349l1 2q12 96 34.5 160.5t62.5 110.5t101.5 67t149.5 21q171 0 225 -84t29 -275l-1 -2q-12 -96 -34.5 -160.5t-62.5 -110.5t-101.5 -67t-149.5 -21q-171 0 -225 84t-29 275zM579 349l1 2q17 109 6.5 173.5t-53 91.5t-133.5 27q-132 0 -183 -61t-73 -231l-1 -2
q-17 -109 -6.5 -173.5t53 -91.5t133.5 -27q132 0 183 61t73 231z" />
    <glyph glyph-name="P" unicode="P" horiz-adv-x="625" 
d="M192 270l-27 -204l65 -17l-6 -49h-204l6 51l59 15l75 568l-55 15l7 51h305q126 0 173.5 -50t32.5 -164v-2q-15 -114 -76 -164t-187 -50h-168zM541 484q11 79 -13 114t-109 35h-179l-39 -296h179q85 0 118 35t43 112z" />
    <glyph glyph-name="Q" unicode="Q" horiz-adv-x="692" 
d="M60 349l1 2q12 96 34.5 160.5t62.5 110.5t101.5 67t149.5 21q171 0 225 -84t29 -275l-1 -2q-26 -200 -105 -280q52 -30 111 -38l-23 -66q-88 13 -153 58q-70 -33 -178 -33q-171 0 -225 84t-29 275zM579 349l1 2q17 109 6.5 173.5t-53 91.5t-133.5 27q-132 0 -183 -61
t-73 -231l-1 -2q-17 -109 -6.5 -173.5t53 -91.5t133.5 -27q67 0 112 15q-45 50 -81 118l42 46q34 -69 102 -125q59 61 81 238z" />
    <glyph glyph-name="R" unicode="R" horiz-adv-x="690" 
d="M627 0h-199l6 50l53 13l-98 237h-193l-31 -234l65 -17l-6 -49h-204l6 51l59 15l75 568l-55 15l7 51h335q127 0 174.5 -47t33.5 -154q-22 -164 -182 -190l105 -243l55 -15zM573 500q9 72 -19 102.5t-115 30.5h-199l-35 -266h199q87 0 123.5 31t45.5 102z" />
    <glyph glyph-name="S" unicode="S" horiz-adv-x="605" 
d="M367 643q-86 0 -137.5 -26t-60.5 -95q-8 -59 24.5 -82t126.5 -37q154 -22 204.5 -66.5t37.5 -142.5q-26 -204 -311 -204q-135 0 -233 52l16 118h51l9 -73q63 -30 161 -30q115 0 166 30.5t61 102.5q9 68 -27 96.5t-138 43.5q-101 14 -153.5 38.5t-67 58.5t-7.5 91
q12 96 80 144t201 48q154 0 225 -36l-17 -134h-51l-13 89q-48 14 -147 14z" />
    <glyph glyph-name="T" unicode="T" horiz-adv-x="640" 
d="M189 49l69 17l75 567h-174l-37 -93h-51l21 160h580l-21 -160h-51l-13 93h-174l-75 -567l65 -17l-6 -49h-214z" />
    <glyph glyph-name="U" unicode="U" horiz-adv-x="694" 
d="M218 634l-57 -434q-9 -67 26.5 -104t139.5 -37q103 0 149 37t55 104l57 434l-65 17l7 49h204l-7 -51l-59 -15l-55 -415q-7 -53 -22.5 -91t-47.5 -71.5t-89 -50t-139 -16.5t-135 17t-75 47t-29.5 71.5t1.5 90.5l55 418l-55 15l7 51h210l-7 -49z" />
    <glyph glyph-name="V" unicode="V" horiz-adv-x="695" 
d="M331 93l253 541l-65 17l7 49h206l-7 -51l-59 -15l-305 -634h-87l-139 634l-55 15l7 51h212l-7 -49l-69 -17z" />
    <glyph glyph-name="W" unicode="W" horiz-adv-x="979" 
d="M190 0l-48 634l-55 15l7 51h210l-7 -49l-69 -17l30 -554l245 620h103l81 -625l178 559l-65 17l7 49h202l-7 -51l-59 -15l-214 -634h-111l-80 604l-237 -604h-111z" />
    <glyph glyph-name="X" unicode="X" horiz-adv-x="682" 
d="M345 298l-195 -232l63 -17l-6 -49h-204l6 51l61 15l243 289l-153 279l-57 15l7 51h218l-7 -49l-67 -17l116 -211l178 211l-63 17l7 49h204l-7 -51l-61 -15l-226 -268l166 -300l57 -15l-6 -51h-218l6 49l67 17z" />
    <glyph glyph-name="Y" unicode="Y" horiz-adv-x="670" 
d="M353 304l215 330l-65 17l7 49h204l-7 -51l-59 -15l-273 -401l-22 -167l65 -17l-6 -49h-214l6 49l69 17l22 167l-167 401l-55 15l7 51h218l-7 -49l-69 -17z" />
    <glyph glyph-name="Z" unicode="Z" horiz-adv-x="590" 
d="M602 624l-508 -556l371 3l35 89h51l-21 -160h-530l10 76l507 556l-341 -3l-34 -89h-51l21 160h500z" />
    <glyph glyph-name="bracketleft" unicode="[" horiz-adv-x="220" 
d="M101 730h155l-9 -65h-79l-96 -730h79l-9 -65h-155z" />
    <glyph glyph-name="backslash" unicode="\" horiz-adv-x="500" 
d="M421 -30h-90l-220 760h90z" />
    <glyph glyph-name="bracketright" unicode="]" horiz-adv-x="220" 
d="M96 730h155l-114 -860h-155l9 65h79l96 730h-79z" />
    <glyph glyph-name="asciicircum" unicode="^" horiz-adv-x="550" 
d="M39 300l262 400h72l156 -400h-75l-126 331l-214 -331h-75z" />
    <glyph glyph-name="underscore" unicode="_" horiz-adv-x="500" 
d="M408 -123l-9 -67h-410l9 67h410z" />
    <glyph glyph-name="grave" unicode="`" 
d="M327 700l36 -140h-70l-66 140h100z" />
    <glyph glyph-name="a" unicode="a" horiz-adv-x="608" 
d="M489 63l55 -14l-6 -49h-128l10 80q-92 -90 -199 -90q-108 0 -149 66t-23 204t76.5 204t166.5 66t175 -90l11 80h128l-6 -49l-59 -14zM301 462q-78 0 -116.5 -46t-52.5 -156q-15 -110 11.5 -156t104.5 -46q103 0 177 94l28 216q-49 94 -152 94z" />
    <glyph glyph-name="b" unicode="b" horiz-adv-x="608" 
d="M567 261v-2q-18 -138 -76.5 -203.5t-167.5 -65.5q-108 0 -175 90l-10 -80h-128l6 49l59 14l79 604l-55 14l7 49h133l-38 -285q88 85 193 85q109 0 150 -65.5t23 -203.5zM314 58q78 0 116.5 45.5t53.5 155.5v2q14 110 -12.5 155.5t-104.5 45.5q-102 0 -176 -94l-28 -216
q49 -94 151 -94z" />
    <glyph glyph-name="c" unicode="c" horiz-adv-x="516" 
d="M248 -10q-127 0 -174.5 65t-29.5 204v2q18 139 83 204t192 65q129 0 183 -53l-14 -112h-53l-9 75q-36 24 -115 24q-90 0 -131 -45.5t-55 -157.5v-2q-15 -112 13.5 -157.5t118.5 -45.5q80 0 112 23.5t38 75.5v2h63v-2q-5 -84 -58 -124.5t-164 -40.5z" />
    <glyph glyph-name="d" unicode="d" horiz-adv-x="603" 
d="M49 261q18 138 76.5 203.5t166.5 65.5q107 0 171 -85l29 222l-55 14l7 49h133l-88 -667l55 -14l-6 -49h-128l10 80q-92 -90 -199 -90q-108 0 -149 65.5t-23 203.5v2zM248 58q103 0 177 94l28 216q-49 94 -152 94q-78 0 -116.5 -45.5t-52.5 -155.5v-2
q-15 -110 11.5 -155.5t104.5 -45.5z" />
    <glyph glyph-name="e" unicode="e" horiz-adv-x="542" 
d="M502 234h-381v-2q-11 -95 21 -134.5t120 -39.5q78 0 115.5 19.5t43.5 67.5v2h63v-2q-10 -155 -231 -155q-127 0 -177 66t-32 203v2q18 137 84.5 203t190.5 66q123 0 164.5 -63.5t22.5 -206.5zM310 462q-82 0 -124.5 -38.5t-56.5 -129.5v-2h298v2q11 94 -14.5 131
t-102.5 37z" />
    <glyph glyph-name="f" unicode="f" horiz-adv-x="371" 
d="M142 -190h-76l85 644h-77l7 52l80 19l13 100q7 57 48 86t104 29q43 0 87 -11l-8 -65q-35 9 -79 9q-71 0 -77 -57l-13 -96h125l-9 -66h-125z" />
    <glyph glyph-name="g" unicode="g" horiz-adv-x="598" 
d="M50 269v2q17 134 75 196.5t167 62.5q108 0 175 -90l11 80h128l-6 -49l-59 -14l-65 -492q-11 -85 -76 -125t-198 -40q-108 0 -176 41l9 73q75 -48 176 -48q176 0 187 87l19 141q-88 -84 -193 -84q-109 0 -150 62.5t-24 196.5zM251 78q102 0 176 94l26 196q-49 94 -152 94
q-78 0 -116 -42.5t-52 -148.5v-2q-14 -106 12.5 -148.5t105.5 -42.5z" />
    <glyph glyph-name="h" unicode="h" horiz-adv-x="608" 
d="M196 365l-40 -302l55 -14l-6 -49h-190l6 49l59 14l79 604l-55 14l7 49h133l-38 -283q77 83 189 83q68 0 110.5 -36t34.5 -99l-44 -332l55 -14l-6 -49h-133l49 379q5 44 -19.5 62.5t-69.5 18.5q-109 0 -176 -95z" />
    <glyph glyph-name="i" unicode="i" horiz-adv-x="270" 
d="M205 0h-190l6 49l59 14l52 394l-55 14l6 49h133l-60 -457l55 -14zM138 655q2 21 18.5 35.5t37.5 14.5t33.5 -14.5t10.5 -35.5q-3 -21 -19.5 -35.5t-37.5 -14.5t-33.5 14.5t-9.5 35.5z" />
    <glyph glyph-name="j" unicode="j" horiz-adv-x="250" 
d="M-9 -133q37 0 51.5 12t18.5 40l71 538l-55 14l6 49h133l-80 -605q-15 -115 -145 -115q-30 0 -58 10l9 65q22 -8 49 -8zM138 655q2 21 18.5 35.5t37.5 14.5t33.5 -14.5t10.5 -35.5q-3 -21 -19.5 -35.5t-37.5 -14.5t-33.5 14.5t-9.5 35.5z" />
    <glyph glyph-name="k" unicode="k" horiz-adv-x="585" 
d="M495 457l-170 -156l148 -238l55 -14l-6 -49h-211l6 49l55 13l-105 185l-99 -92l-12 -92l55 -14l-6 -49h-190l6 49l59 14l79 604l-55 14l7 49h133l-63 -478l221 209l-39 10l6 49h191l-6 -49z" />
    <glyph glyph-name="l" unicode="l" horiz-adv-x="265" 
d="M200 0h-190l6 49l59 14l79 604l-55 14l7 49h133l-88 -667l55 -14z" />
    <glyph glyph-name="m" unicode="m" horiz-adv-x="865" 
d="M196 370l-40 -307l55 -14l-6 -49h-190l6 49l59 14l52 394l-55 14l6 49h128l-10 -73q74 83 181 83q45 0 76.5 -22.5t39.5 -63.5q75 86 184 86q59 0 92.5 -35.5t25.5 -99.5l-44 -332l55 -14l-6 -49h-133l50 383q4 43 -14 60t-54 17q-90 0 -158 -90l-40 -307l55 -14l-6 -49
h-133l49 378q6 46 -12 64t-55 18q-90 0 -158 -90z" />
    <glyph glyph-name="n" unicode="n" horiz-adv-x="605" 
d="M196 365l-40 -302l55 -14l-6 -49h-190l6 49l59 14l52 394l-55 14l6 49h128l-11 -80q76 90 195 90q68 0 110.5 -36t34.5 -99l-44 -332l55 -14l-6 -49h-133l49 379q5 44 -19.5 62.5t-69.5 18.5q-109 0 -176 -95z" />
    <glyph glyph-name="o" unicode="o" horiz-adv-x="560" 
d="M248 -10q-127 0 -174.5 65t-29.5 204v2q18 139 83 204t192 65t175 -65t30 -204v-2q-18 -139 -83.5 -204t-192.5 -65zM257 56q89 0 129 45.5t55 157.5v2q15 112 -13 157.5t-117 45.5t-129.5 -45.5t-54.5 -157.5v-2q-15 -112 13 -157.5t117 -45.5z" />
    <glyph glyph-name="p" unicode="p" horiz-adv-x="608" 
d="M323 -10q-104 0 -171 84l-26 -201l65 -17l-7 -46h-200l7 49l59 14l77 584l-55 14l6 49h128l-11 -80q92 90 199 90q109 0 150 -65.5t23 -203.5v-2q-18 -138 -76.5 -203.5t-167.5 -65.5zM367 462q-102 0 -176 -94l-28 -216q49 -94 151 -94q78 0 116.5 45.5t53.5 155.5v2
q14 110 -12.5 155.5t-104.5 45.5z" />
    <glyph glyph-name="q" unicode="q" horiz-adv-x="603" 
d="M49 259v2q18 138 76.5 203.5t166.5 65.5t175 -90l11 80h128l-6 -49l-59 -14l-77 -584l55 -14l-7 -49h-200l7 46l69 17l26 201q-88 -84 -193 -84q-108 0 -149 65.5t-23 203.5zM301 462q-78 0 -116.5 -45.5t-52.5 -155.5v-2q-15 -110 11.5 -155.5t104.5 -45.5q103 0 177 94
l28 216q-49 94 -152 94z" />
    <glyph glyph-name="r" unicode="r" horiz-adv-x="386" 
d="M215 0h-200l6 49l59 14l52 394l-55 14l6 49h128l-11 -87q63 97 149 97q26 0 45 -10l-10 -76q-20 7 -51 7q-38 0 -75.5 -25.5t-61.5 -60.5l-40 -302l65 -17z" />
    <glyph glyph-name="s" unicode="s" horiz-adv-x="500" 
d="M286 463q-66 0 -101 -17.5t-42 -66.5q-5 -42 21 -56t103 -20q113 -8 152.5 -42.5t29.5 -115.5q-20 -155 -247 -155q-111 0 -183 48l15 117h53l9 -76q44 -22 120 -22q144 0 157 88q6 47 -18.5 64.5t-104.5 24.5q-116 10 -154 42.5t-29 102.5q20 151 228 151q113 0 179 -46
l-15 -119h-53l-10 78q-37 20 -110 20z" />
    <glyph glyph-name="t" unicode="t" horiz-adv-x="363" 
d="M342 454h-130l-46 -348q-3 -26 7 -37.5t44 -11.5q47 0 84 9l-8 -65q-47 -11 -96 -11q-60 0 -87.5 26t-19.5 87l46 351h-67l7 49l69 17l13 97l77 10l-14 -107h130z" />
    <glyph glyph-name="u" unicode="u" horiz-adv-x="590" 
d="M417 155l40 302l-55 14l6 49h133l-60 -457l55 -14l-6 -49h-128l10 80q-76 -90 -195 -90q-68 0 -110.5 36t-33.5 99l44 332l-55 14l6 49h133l-49 -374q-6 -47 17.5 -66.5t70.5 -19.5q109 0 177 95z" />
    <glyph glyph-name="v" unicode="v" horiz-adv-x="539" 
d="M251 80l174 378l-55 14l6 48h181l-6 -49l-49 -12l-221 -459h-83l-101 459l-45 12l6 49h187l-6 -48l-59 -14z" />
    <glyph glyph-name="w" unicode="w" horiz-adv-x="799" 
d="M157 0l-55 460l-45 11l6 49h182l-6 -49l-55 -13l32 -365l183 427h81l70 -427l129 365l-51 13l6 49h178l-6 -49l-49 -11l-175 -460h-85l-73 419l-182 -419h-85z" />
    <glyph glyph-name="x" unicode="x" horiz-adv-x="580" 
d="M143 59l52 -10l-6 -49h-187l6 49l54 14l189 209l-114 185l-50 14l6 49h195l-6 -49l-55 -10l79 -128l116 128l-51 10l6 49h187l-6 -49l-54 -14l-163 -180l133 -214l50 -14l-6 -49h-195l6 49l54 10l-97 157z" />
    <glyph glyph-name="y" unicode="y" horiz-adv-x="575" 
d="M417 155l40 302l-55 14l6 49h133l-73 -555q-11 -85 -76 -125t-198 -40q-108 0 -176 41l9 73q75 -48 176 -48q176 0 187 87l16 120q-75 -83 -189 -83q-68 0 -110.5 36t-33.5 99l44 332l-55 14l6 49h133l-49 -374q-6 -47 17.5 -66.5t70.5 -19.5q109 0 177 95z" />
    <glyph glyph-name="z" unicode="z" horiz-adv-x="500" 
d="M430 0h-420l9 72l371 384l-230 -3l-34 -88h-53l20 155h390l-10 -72l-370 -384l259 3l35 88h53z" />
    <glyph glyph-name="braceleft" unicode="{" horiz-adv-x="290" 
d="M76 8l23 175q6 49 -5.5 67t-52.5 18h-10l8 64h10q41 0 57.5 18t22.5 67l23 175q10 71 45.5 104.5t117.5 33.5h11l-9 -65h-10q-41 0 -57.5 -18t-22.5 -67l-23 -170q-9 -81 -59 -110q40 -30 31 -110l-23 -170q-6 -49 5.5 -67t52.5 -18h10l-9 -65h-11q-82 0 -108.5 33.5
t-16.5 104.5z" />
    <glyph glyph-name="bar" unicode="|" horiz-adv-x="146" 
d="M101 730h76l-114 -860h-76z" />
    <glyph glyph-name="braceright" unicode="}" horiz-adv-x="290" 
d="M232 592l-23 -175q-6 -49 5.5 -67t52.5 -18h10l-8 -64h-10q-41 0 -57.5 -18t-22.5 -67l-23 -175q-10 -71 -45.5 -104.5t-117.5 -33.5h-11l9 65h10q41 0 57.5 18t22.5 67l23 170q9 80 58 110q-40 28 -30 110l23 170q6 49 -5.5 67t-52.5 18h-10l9 65h11q82 0 108.5 -33.5
t16.5 -104.5z" />
    <glyph glyph-name="asciitilde" unicode="~" horiz-adv-x="500" 
d="M158 285q-44 0 -103 -31l-13 69q61 39 128 39q44 0 102.5 -24t87.5 -24q44 0 103 31l13 -69q-61 -39 -128 -39q-44 0 -102.5 24t-87.5 24z" />
    <glyph glyph-name="exclamdown" unicode="&#xa1;" horiz-adv-x="250" 
d="M156 305l-37 -495h-100l96 495h41zM209 478q-2 -22 -19 -37t-39 -15t-35 15t-11 37q3 22 20 37t39 15t35 -15t10 -37z" />
    <glyph glyph-name="cent" unicode="&#xa2;" horiz-adv-x="521" 
d="M142 348v-2q-14 -109 14.5 -146.5t120.5 -37.5q80 0 112 23.5t38 75.5v2h63v-2q-5 -84 -58 -124.5t-164 -40.5h-30l-53 -96h-75l61 106q-72 19 -98 76t-12 164v2q18 136 80.5 193t192.5 57q4 0 10 -0.5t10 -0.5l52 94h75l-59 -102q121 -28 95 -156l-1 -2h-67l1 2
q7 52 -18.5 75.5t-105.5 23.5q-92 0 -130.5 -37.5t-53.5 -146.5z" />
    <glyph glyph-name="dieresis" unicode="&#xa8;" 
d="M297 650q-3 -22 -20 -37t-39 -15t-35 15t-10 37t20 37t39 15t35 -15t10 -37zM487 650q-3 -22 -20 -37t-39 -15t-35 15t-10 37t20 37t39 15t35 -15t10 -37z" />
    <glyph glyph-name="copyright" unicode="&#xa9;" horiz-adv-x="770" 
d="M745 345q-24 -183 -122 -269t-270 -86t-247 86t-51 269t122 269t270 86t247 -86t51 -269zM676 345q21 156 -38 224.5t-200 68.5t-217 -68.5t-97 -224.5t37.5 -224.5t199.5 -68.5t217.5 68.5t97.5 224.5zM291 314q-9 -64 14.5 -87.5t85.5 -23.5q60 0 127 28l14 -60
q-70 -36 -150 -36q-94 0 -138.5 41.5t-33.5 124.5l12 88q21 166 216 166q80 0 140 -36l-30 -60q-60 28 -119 28q-62 0 -91.5 -23.5t-38.5 -87.5z" />
    <glyph glyph-name="ordfeminine" unicode="&#xaa;" horiz-adv-x="403" 
d="M116 672q24 16 66.5 27t79.5 11q81 0 117.5 -28.5t30.5 -76.5l-33 -245l41 -11l-4 -37h-106l7 57q-55 -64 -149 -64q-51 0 -83.5 30.5t-25.5 78.5q6 46 27 75t60.5 43t81.5 18t109 4l3 21q6 44 -12 59.5t-74 15.5q-45 0 -82 -16l-19 -48h-46zM319 429l10 74
q-52 0 -76 -1.5t-57 -8t-48 -23t-19 -44.5q-4 -31 12 -47t47 -16q84 0 131 66z" />
    <glyph glyph-name="guillemotleft" unicode="&#xab;" horiz-adv-x="280" 
d="M45 345l108 65l-8 -65l-51 -45l39 -45l-8 -65l-92 65zM165 345l111 85l-9 -70l-53 -60l37 -60l-9 -70l-89 85z" />
    <glyph glyph-name="registered" unicode="&#xae;" horiz-adv-x="250" 
d="M278 610q-15 -108 -117 -108q-104 0 -89 108t117 108q104 0 89 -108zM256 610q6 48 -10.5 69t-58.5 21q-82 0 -93 -90q-7 -47 10 -68.5t59 -21.5t64 21t29 69zM150 594l-7 -54h-21l18 140h47q44 0 37 -43v-4q-4 -27 -27 -35l16 -58h-24l-11 54h-28zM202 634l1 6
q3 22 -17 22h-27l-7 -50h27q20 0 23 22z" />
    <glyph glyph-name="macron" unicode="&#xaf;" 
d="M182 678h324l-9 -70h-324z" />
    <glyph glyph-name="degree" unicode="&#xb0;" horiz-adv-x="280" 
d="M252 585q3 27 -13.5 46t-43.5 19t-48.5 -19t-24.5 -46q-4 -27 12.5 -46t43.5 -19t48.5 19t25.5 46zM72 585q6 47 44.5 81t85.5 34t76.5 -34t23.5 -81q-7 -47 -45.5 -81t-85.5 -34t-76.5 34t-22.5 81z" />
    <glyph glyph-name="plusminus" unicode="&#xb1;" horiz-adv-x="550" 
d="M57 440h210l23 170h70l-23 -170h210l-9 -70h-210l-22 -170h-70l22 170h-210zM19 150h490l-9 -70h-490z" />
    <glyph glyph-name="acute" unicode="&#xb4;" 
d="M293 560l74 140h100l-104 -140h-70z" />
    <glyph glyph-name="periodcentered" unicode="&#xb7;" horiz-adv-x="180" 
d="M47 300q3 22 20 37t39 15t35 -15t10 -37t-20 -37t-39 -15t-35 15t-10 37z" />
    <glyph glyph-name="cedilla" unicode="&#xb8;" 
d="M286 -116q5 36 -69 50l29 66h35l-18 -42q88 -17 80 -83q-10 -75 -113 -75q-46 0 -78 16l21 46q27 -12 54 -12q56 0 59 34z" />
    <glyph glyph-name="ordmasculine" unicode="&#xba;" horiz-adv-x="426" 
d="M223 305q-96 0 -132 49t-22 153v1q14 104 62.5 153t144.5 49q95 0 131 -49t22 -153v-1q-14 -104 -62.5 -153t-143.5 -49zM231 367q60 0 87 31.5t37 108.5v1q10 76 -8.5 107.5t-78.5 31.5t-87.5 -31.5t-37.5 -107.5v-1q-10 -77 9 -108.5t79 -31.5z" />
    <glyph glyph-name="guillemotright" unicode="&#xbb;" horiz-adv-x="280" 
d="M253 255l-108 -65l8 65l51 45l-39 45l8 65l92 -65zM133 255l-111 -85l9 70l53 60l-37 60l9 70l89 -85z" />
    <glyph glyph-name="questiondown" unicode="&#xbf;" horiz-adv-x="510" 
d="M367 478q-2 -22 -19 -37t-39 -15t-35 15t-11 37q3 22 20 37t39 15t35 -15t10 -37zM273 305h39q23 -75 -0.5 -119t-102.5 -83q-34 -17 -49 -25.5t-34 -24t-27 -33.5t-12 -44q-8 -60 23 -82t101 -22q96 0 186 47l21 -66q-95 -53 -217 -53q-115 0 -160 43t-33 133
q5 36 18.5 63t42.5 50.5t53 37.5t73 40q49 25 65.5 54t12.5 84z" />
    <glyph glyph-name="Agrave" unicode="&#xc0;" horiz-adv-x="695" 
d="M205 200l-63 -134l65 -17l-6 -49h-206l6 51l59 15l306 634h87l138 -634l55 -15l-6 -51h-212l6 49l69 17l-27 134h-271zM395 607l-159 -340h227zM412 880l37 -140h-70l-67 140h100z" />
    <glyph glyph-name="Aacute" unicode="&#xc1;" horiz-adv-x="695" 
d="M205 200l-63 -134l65 -17l-6 -49h-206l6 51l59 15l306 634h87l138 -634l55 -15l-6 -51h-212l6 49l69 17l-27 134h-271zM395 607l-159 -340h227zM379 740l73 140h100l-103 -140h-70z" />
    <glyph glyph-name="Acircumflex" unicode="&#xc2;" horiz-adv-x="695" 
d="M205 200l-63 -134l65 -17l-6 -49h-206l6 51l59 15l306 634h87l138 -634l55 -15l-6 -51h-212l6 49l69 17l-27 134h-271zM395 607l-159 -340h227zM472 880l102 -140h-75l-76 70l-94 -70h-75l138 140h80z" />
    <glyph glyph-name="Atilde" unicode="&#xc3;" horiz-adv-x="695" 
d="M205 200l-63 -134l65 -17l-6 -49h-206l6 51l59 15l306 634h87l138 -634l55 -15l-6 -51h-212l6 49l69 17l-27 134h-271zM395 607l-159 -340h227zM513 822q32 0 37 39h58q-8 -58 -39 -84t-69 -26q-26 0 -88 26.5t-78 26.5q-32 0 -37 -39h-58q8 58 39 84t69 26
q25 0 87 -26.5t79 -26.5z" />
    <glyph glyph-name="Adieresis" unicode="&#xc4;" horiz-adv-x="695" 
d="M205 200l-63 -134l65 -17l-6 -49h-206l6 51l59 15l306 634h87l138 -634l55 -15l-6 -51h-212l6 49l69 17l-27 134h-271zM395 607l-159 -340h227zM383 830q-3 -22 -20 -37t-39 -15t-35 15t-10 37t20 37t39 15t35 -15t10 -37zM573 830q-3 -22 -20 -37t-39 -15t-35 15t-10 37
t20 37t39 15t35 -15t10 -37z" />
    <glyph glyph-name="Aring" unicode="&#xc5;" horiz-adv-x="695" 
d="M205 200l-63 -134l65 -17l-6 -49h-206l6 51l59 15l306 634h87l138 -634l55 -15l-6 -51h-212l6 49l69 17l-27 134h-271zM395 607l-159 -340h227zM349 815q4 31 29 53t56 22t50 -22t15 -53q-5 -31 -29.5 -53t-55.5 -22t-50 22t-15 53zM469 815q2 19 -9 32t-30 13t-34 -13
t-17 -32t9 -32t30 -13t34 13t17 32z" />
    <glyph glyph-name="AE" unicode="&#xc6;" horiz-adv-x="1004" 
d="M589 326l-34 -259h312l37 93h51l-21 -160h-534l6 49l69 17l13 101h-262l-77 -104l49 -13l-6 -50h-197l6 51l59 15l479 634h487l-21 -160h-51l-12 93h-312l-32 -240h212l26 67h49l-26 -201h-49l-9 67h-212zM277 234h220l47 354z" />
    <glyph glyph-name="Ccedilla" unicode="&#xc7;" horiz-adv-x="625" 
d="M343 -116q5 36 -69 50l24 57q-157 6 -209.5 90.5t-28.5 267.5l1 2q25 189 105 274t253 85q143 0 214 -36l-17 -134h-51l-12 89q-50 14 -143 14q-133 0 -188.5 -62.5t-77.5 -229.5l-1 -2q-22 -167 17.5 -229.5t172.5 -62.5q92 0 147 14l35 89h51l-18 -134
q-77 -34 -215 -36l-13 -32q88 -17 80 -83q-10 -75 -113 -75q-46 0 -78 16l21 46q27 -12 54 -12q56 0 59 34z" />
    <glyph glyph-name="Egrave" unicode="&#xc8;" horiz-adv-x="614" 
d="M199 326l-34 -259h312l37 93h51l-21 -160h-524l6 51l59 15l75 568l-55 15l7 51h524l-21 -160h-51l-12 93h-312l-32 -240h212l26 67h49l-26 -201h-49l-9 67h-212zM392 880l37 -140h-70l-67 140h100z" />
    <glyph glyph-name="Eacute" unicode="&#xc9;" horiz-adv-x="614" 
d="M199 326l-34 -259h312l37 93h51l-21 -160h-524l6 51l59 15l75 568l-55 15l7 51h524l-21 -160h-51l-12 93h-312l-32 -240h212l26 67h49l-26 -201h-49l-9 67h-212zM339 740l73 140h100l-103 -140h-70z" />
    <glyph glyph-name="Ecircumflex" unicode="&#xca;" horiz-adv-x="614" 
d="M199 326l-34 -259h312l37 93h51l-21 -160h-524l6 51l59 15l75 568l-55 15l7 51h524l-21 -160h-51l-12 93h-312l-32 -240h212l26 67h49l-26 -201h-49l-9 67h-212zM442 880l102 -140h-75l-76 70l-94 -70h-75l138 140h80z" />
    <glyph glyph-name="Edieresis" unicode="&#xcb;" horiz-adv-x="614" 
d="M199 326l-34 -259h312l37 93h51l-21 -160h-524l6 51l59 15l75 568l-55 15l7 51h524l-21 -160h-51l-12 93h-312l-32 -240h212l26 67h49l-26 -201h-49l-9 67h-212zM353 830q-3 -22 -20 -37t-39 -15t-35 15t-10 37t20 37t39 15t35 -15t10 -37zM543 830q-3 -22 -20 -37
t-39 -15t-35 15t-10 37t20 37t39 15t35 -15t10 -37z" />
    <glyph glyph-name="Igrave" unicode="&#xcc;" horiz-adv-x="324" 
d="M239 0h-214l6 49l69 17l75 568l-65 17l7 49h214l-7 -49l-69 -17l-75 -568l65 -17zM227 880l37 -140h-70l-67 140h100z" />
    <glyph glyph-name="Iacute" unicode="&#xcd;" horiz-adv-x="324" 
d="M239 0h-214l6 49l69 17l75 568l-65 17l7 49h214l-7 -49l-69 -17l-75 -568l65 -17zM194 740l73 140h100l-103 -140h-70z" />
    <glyph glyph-name="Icircumflex" unicode="&#xce;" horiz-adv-x="324" 
d="M239 0h-214l6 49l69 17l75 568l-65 17l7 49h214l-7 -49l-69 -17l-75 -568l65 -17zM287 880l102 -140h-75l-76 70l-94 -70h-75l138 140h80z" />
    <glyph glyph-name="Idieresis" unicode="&#xcf;" horiz-adv-x="324" 
d="M239 0h-214l6 49l69 17l75 568l-65 17l7 49h214l-7 -49l-69 -17l-75 -568l65 -17zM208 830q-3 -22 -20 -37t-39 -15t-35 15t-10 37t20 37t39 15t35 -15t10 -37zM378 830q-3 -22 -20 -37t-39 -15t-35 15t-10 37t20 37t39 15t35 -15t10 -37z" />
    <glyph glyph-name="Ntilde" unicode="&#xd1;" horiz-adv-x="740" 
d="M623 0h-100l-293 596l-65 -530l65 -17l-6 -49h-204l6 51l59 15l75 568l-55 15l7 51h158l291 -596l65 530l-65 17l7 49h204l-7 -51l-59 -15zM536 822q32 0 37 39h58q-8 -58 -39 -84t-69 -26q-25 0 -87 26.5t-79 26.5q-32 0 -37 -39h-58q8 58 39 84t69 26q26 0 88 -26.5
t78 -26.5z" />
    <glyph glyph-name="Ograve" unicode="&#xd2;" horiz-adv-x="692" 
d="M60 349l1 2q12 96 34.5 160.5t62.5 110.5t101.5 67t149.5 21q171 0 225 -84t29 -275l-1 -2q-12 -96 -34.5 -160.5t-62.5 -110.5t-101.5 -67t-149.5 -21q-171 0 -225 84t-29 275zM579 349l1 2q17 109 6.5 173.5t-53 91.5t-133.5 27q-132 0 -183 -61t-73 -231l-1 -2
q-17 -109 -6.5 -173.5t53 -91.5t133.5 -27q132 0 183 61t73 231zM411 880l37 -140h-70l-67 140h100z" />
    <glyph glyph-name="Oacute" unicode="&#xd3;" horiz-adv-x="692" 
d="M60 349l1 2q12 96 34.5 160.5t62.5 110.5t101.5 67t149.5 21q171 0 225 -84t29 -275l-1 -2q-12 -96 -34.5 -160.5t-62.5 -110.5t-101.5 -67t-149.5 -21q-171 0 -225 84t-29 275zM579 349l1 2q17 109 6.5 173.5t-53 91.5t-133.5 27q-132 0 -183 -61t-73 -231l-1 -2
q-17 -109 -6.5 -173.5t53 -91.5t133.5 -27q132 0 183 61t73 231zM378 740l73 140h100l-103 -140h-70z" />
    <glyph glyph-name="Ocircumflex" unicode="&#xd4;" horiz-adv-x="692" 
d="M60 349l1 2q12 96 34.5 160.5t62.5 110.5t101.5 67t149.5 21q171 0 225 -84t29 -275l-1 -2q-12 -96 -34.5 -160.5t-62.5 -110.5t-101.5 -67t-149.5 -21q-171 0 -225 84t-29 275zM579 349l1 2q17 109 6.5 173.5t-53 91.5t-133.5 27q-132 0 -183 -61t-73 -231l-1 -2
q-17 -109 -6.5 -173.5t53 -91.5t133.5 -27q132 0 183 61t73 231zM471 880l102 -140h-75l-76 70l-94 -70h-75l138 140h80z" />
    <glyph glyph-name="Otilde" unicode="&#xd5;" horiz-adv-x="692" 
d="M60 349l1 2q12 96 34.5 160.5t62.5 110.5t101.5 67t149.5 21q171 0 225 -84t29 -275l-1 -2q-12 -96 -34.5 -160.5t-62.5 -110.5t-101.5 -67t-149.5 -21q-171 0 -225 84t-29 275zM579 349l1 2q17 109 6.5 173.5t-53 91.5t-133.5 27q-132 0 -183 -61t-73 -231l-1 -2
q-17 -109 -6.5 -173.5t53 -91.5t133.5 -27q132 0 183 61t73 231zM512 822q32 0 37 39h58q-8 -58 -39 -84t-69 -26q-25 0 -87 26.5t-79 26.5q-32 0 -37 -39h-58q8 58 39 84t69 26q26 0 88 -26.5t78 -26.5z" />
    <glyph glyph-name="Odieresis" unicode="&#xd6;" horiz-adv-x="692" 
d="M60 349l1 2q12 96 34.5 160.5t62.5 110.5t101.5 67t149.5 21q171 0 225 -84t29 -275l-1 -2q-12 -96 -34.5 -160.5t-62.5 -110.5t-101.5 -67t-149.5 -21q-171 0 -225 84t-29 275zM579 349l1 2q17 109 6.5 173.5t-53 91.5t-133.5 27q-132 0 -183 -61t-73 -231l-1 -2
q-17 -109 -6.5 -173.5t53 -91.5t133.5 -27q132 0 183 61t73 231zM382 830q-3 -22 -20 -37t-39 -15t-35 15t-10 37t20 37t39 15t35 -15t10 -37zM572 830q-3 -22 -20 -37t-39 -15t-35 15t-10 37t20 37t39 15t35 -15t10 -37z" />
    <glyph glyph-name="multiply" unicode="&#xd7;" horiz-adv-x="550" 
d="M29 158l212 187l-162 187l55 49l162 -187l212 187l43 -49l-212 -187l162 -187l-55 -49l-163 187l-211 -187z" />
    <glyph glyph-name="Oslash" unicode="&#xd8;" horiz-adv-x="692" 
d="M675 750l-66 -95q45 -41 57.5 -118t-3.5 -187q-26 -192 -102 -276t-247 -84q-96 0 -154 26l-46 -66h-65l66 94q-46 41 -58 118.5t4 187.5q12 96 34.5 160.5t62.5 111t101.5 67.5t149.5 21q97 0 154 -27l47 67h65zM144 350q-13 -88 -9.5 -148t26.5 -92l360 513
q-43 20 -121 20q-132 0 -183 -61.5t-73 -231.5zM580 350q23 180 -18 238l-359 -511q41 -20 120 -20q132 0 183.5 61.5t73.5 231.5z" />
    <glyph glyph-name="Ugrave" unicode="&#xd9;" horiz-adv-x="694" 
d="M218 634l-57 -434q-9 -67 26.5 -104t139.5 -37q103 0 149 37t55 104l57 434l-65 17l7 49h204l-7 -51l-59 -15l-55 -415q-7 -53 -22.5 -91t-47.5 -71.5t-89 -50t-139 -16.5t-135 17t-75 47t-29.5 71.5t1.5 90.5l55 418l-55 15l7 51h210l-7 -49zM412 880l37 -140h-70
l-67 140h100z" />
    <glyph glyph-name="Uacute" unicode="&#xda;" horiz-adv-x="694" 
d="M218 634l-57 -434q-9 -67 26.5 -104t139.5 -37q103 0 149 37t55 104l57 434l-65 17l7 49h204l-7 -51l-59 -15l-55 -415q-7 -53 -22.5 -91t-47.5 -71.5t-89 -50t-139 -16.5t-135 17t-75 47t-29.5 71.5t1.5 90.5l55 418l-55 15l7 51h210l-7 -49zM379 740l73 140h100
l-103 -140h-70z" />
    <glyph glyph-name="Ucircumflex" unicode="&#xdb;" horiz-adv-x="694" 
d="M218 634l-57 -434q-9 -67 26.5 -104t139.5 -37q103 0 149 37t55 104l57 434l-65 17l7 49h204l-7 -51l-59 -15l-55 -415q-7 -53 -22.5 -91t-47.5 -71.5t-89 -50t-139 -16.5t-135 17t-75 47t-29.5 71.5t1.5 90.5l55 418l-55 15l7 51h210l-7 -49zM472 880l102 -140h-75
l-76 70l-94 -70h-75l138 140h80z" />
    <glyph glyph-name="Udieresis" unicode="&#xdc;" horiz-adv-x="694" 
d="M218 634l-57 -434q-9 -67 26.5 -104t139.5 -37q103 0 149 37t55 104l57 434l-65 17l7 49h204l-7 -51l-59 -15l-55 -415q-7 -53 -22.5 -91t-47.5 -71.5t-89 -50t-139 -16.5t-135 17t-75 47t-29.5 71.5t1.5 90.5l55 418l-55 15l7 51h210l-7 -49zM383 830q-3 -22 -20 -37
t-39 -15t-35 15t-10 37t20 37t39 15t35 -15t10 -37zM573 830q-3 -22 -20 -37t-39 -15t-35 15t-10 37t20 37t39 15t35 -15t10 -37z" />
    <glyph glyph-name="agrave" unicode="&#xe0;" horiz-adv-x="608" 
d="M326 700l36 -140h-70l-66 140h100zM489 63l55 -14l-6 -49h-128l10 80q-92 -90 -199 -90q-108 0 -149 66t-23 204t76.5 204t166.5 66t175 -90l11 80h128l-6 -49l-59 -14zM301 462q-78 0 -116.5 -46t-52.5 -156q-15 -110 11.5 -156t104.5 -46q103 0 177 94l28 216
q-49 94 -152 94z" />
    <glyph glyph-name="aacute" unicode="&#xe1;" horiz-adv-x="608" 
d="M309 560l74 140h100l-104 -140h-70zM489 63l55 -14l-6 -49h-128l10 80q-92 -90 -199 -90q-108 0 -149 66t-23 204t76.5 204t166.5 66t175 -90l11 80h128l-6 -49l-59 -14zM301 462q-78 0 -116.5 -46t-52.5 -156q-15 -110 11.5 -156t104.5 -46q103 0 177 94l28 216
q-49 94 -152 94z" />
    <glyph glyph-name="acircumflex" unicode="&#xe2;" horiz-adv-x="608" 
d="M386 700l101 -140h-75l-76 70l-94 -70h-75l139 140h80zM489 63l55 -14l-6 -49h-128l10 80q-92 -90 -199 -90q-108 0 -149 66t-23 204t76.5 204t166.5 66t175 -90l11 80h128l-6 -49l-59 -14zM301 462q-78 0 -116.5 -46t-52.5 -156q-15 -110 11.5 -156t104.5 -46
q103 0 177 94l28 216q-49 94 -152 94z" />
    <glyph glyph-name="atilde" unicode="&#xe3;" horiz-adv-x="608" 
d="M426 642q32 0 37 39h58q-8 -58 -38.5 -84t-68.5 -26q-26 0 -87.5 26.5t-78.5 26.5q-33 0 -37 -39h-58q8 58 38.5 84t68.5 26q26 0 88 -26.5t78 -26.5zM489 63l55 -14l-6 -49h-128l10 80q-92 -90 -199 -90q-108 0 -149 66t-23 204t76.5 204t166.5 66t175 -90l11 80h128
l-6 -49l-59 -14zM301 462q-78 0 -116.5 -46t-52.5 -156q-15 -110 11.5 -156t104.5 -46q103 0 177 94l28 216q-49 94 -152 94z" />
    <glyph glyph-name="adieresis" unicode="&#xe4;" horiz-adv-x="608" 
d="M296 650q-3 -22 -20 -37t-39 -15t-35 15t-10 37t20 37t39 15t35 -15t10 -37zM486 650q-3 -22 -20 -37t-39 -15t-35 15t-10 37t20 37t39 15t35 -15t10 -37zM489 63l55 -14l-6 -49h-128l10 80q-92 -90 -199 -90q-108 0 -149 66t-23 204t76.5 204t166.5 66t175 -90l11 80
h128l-6 -49l-59 -14zM301 462q-78 0 -116.5 -46t-52.5 -156q-15 -110 11.5 -156t104.5 -46q103 0 177 94l28 216q-49 94 -152 94z" />
    <glyph glyph-name="aring" unicode="&#xe5;" horiz-adv-x="608" 
d="M262 635q4 31 29 53t56 22t50 -22t15 -53t-29 -53t-56 -22t-50 22t-15 53zM382 635q2 19 -9 32t-30 13t-34 -13t-17 -32t9 -32t30 -13t34 13t17 32zM489 63l55 -14l-6 -49h-128l10 80q-92 -90 -199 -90q-108 0 -149 66t-23 204t76.5 204t166.5 66t175 -90l11 80h128
l-6 -49l-59 -14zM301 462q-78 0 -116.5 -46t-52.5 -156q-15 -110 11.5 -156t104.5 -46q103 0 177 94l28 216q-49 94 -152 94z" />
    <glyph glyph-name="ae" unicode="&#xe6;" horiz-adv-x="881" 
d="M98 143q-6 -46 18 -65.5t71 -19.5q120 0 184 95q0 20 3 41l6 46q-152 0 -212.5 -18t-69.5 -79zM592 -10q-154 0 -197 98q-46 -51 -100.5 -74.5t-130.5 -23.5q-69 0 -110 37t-32 106q6 46 25.5 77.5t48 50.5t75.5 29t96 13.5t122 3.5l6 43q5 39 1 64.5t-30.5 37.5
t-83.5 12q-60 0 -109 -22l-28 -77h-53l15 114q33 22 85 36.5t101 14.5q137 0 169 -72q68 72 196 72q123 0 164.5 -63.5t22.5 -206.5l-3 -20h-381l-1 -8q-11 -95 21 -134.5t120 -39.5q78 0 115.5 19.5t43.5 67.5v2h63v-2q-10 -155 -231 -155zM649 462q-80 0 -123 -37.5
t-56 -115.5v-2h298v2q9 81 -17.5 117t-101.5 36z" />
    <glyph glyph-name="ccedilla" unicode="&#xe7;" horiz-adv-x="516" 
d="M269 -116q5 36 -69 50l24 57q-114 6 -156 70.5t-24 197.5v2q18 139 83 204t192 65q129 0 183 -53l-14 -112h-53l-9 75q-36 24 -115 24q-90 0 -131 -45.5t-55 -157.5v-2q-15 -112 13.5 -157.5t118.5 -45.5q80 0 112 23.5t38 75.5v2h63v-2q-5 -82 -55 -122.5t-156 -42.5
l-13 -32q88 -17 80 -83q-10 -75 -113 -75q-46 0 -78 16l21 46q27 -12 54 -12q56 0 59 34z" />
    <glyph glyph-name="egrave" unicode="&#xe8;" horiz-adv-x="542" 
d="M502 234h-381v-2q-11 -95 21 -134.5t120 -39.5q78 0 115.5 19.5t43.5 67.5v2h63v-2q-10 -155 -231 -155q-127 0 -177 66t-32 203v2q18 137 84.5 203t190.5 66q123 0 164.5 -63.5t22.5 -206.5zM310 462q-82 0 -124.5 -38.5t-56.5 -129.5v-2h298v2q11 94 -14.5 131
t-102.5 37zM322 700l36 -140h-70l-66 140h100z" />
    <glyph glyph-name="eacute" unicode="&#xe9;" horiz-adv-x="542" 
d="M502 234h-381v-2q-11 -95 21 -134.5t120 -39.5q78 0 115.5 19.5t43.5 67.5v2h63v-2q-10 -155 -231 -155q-127 0 -177 66t-32 203v2q18 137 84.5 203t190.5 66q123 0 164.5 -63.5t22.5 -206.5zM310 462q-82 0 -124.5 -38.5t-56.5 -129.5v-2h298v2q11 94 -14.5 131
t-102.5 37zM288 560l74 140h100l-104 -140h-70z" />
    <glyph glyph-name="ecircumflex" unicode="&#xea;" horiz-adv-x="542" 
d="M502 234h-381v-2q-11 -95 21 -134.5t120 -39.5q78 0 115.5 19.5t43.5 67.5v2h63v-2q-10 -155 -231 -155q-127 0 -177 66t-32 203v2q18 137 84.5 203t190.5 66q123 0 164.5 -63.5t22.5 -206.5zM310 462q-82 0 -124.5 -38.5t-56.5 -129.5v-2h298v2q11 94 -14.5 131
t-102.5 37zM382 700l101 -140h-75l-76 70l-94 -70h-75l139 140h80z" />
    <glyph glyph-name="edieresis" unicode="&#xeb;" horiz-adv-x="542" 
d="M502 234h-381v-2q-11 -95 21 -134.5t120 -39.5q78 0 115.5 19.5t43.5 67.5v2h63v-2q-10 -155 -231 -155q-127 0 -177 66t-32 203v2q18 137 84.5 203t190.5 66q123 0 164.5 -63.5t22.5 -206.5zM310 462q-82 0 -124.5 -38.5t-56.5 -129.5v-2h298v2q11 94 -14.5 131
t-102.5 37zM292 650q-3 -22 -20 -37t-39 -15t-35 15t-10 37t20 37t39 15t35 -15t10 -37zM482 650q-3 -22 -20 -37t-39 -15t-35 15t-10 37t20 37t39 15t35 -15t10 -37z" />
    <glyph glyph-name="igrave" unicode="&#xec;" horiz-adv-x="270" 
d="M205 0h-190l6 49l59 14l52 394l-55 14l6 49h133l-60 -457l55 -14zM174 700l36 -140h-70l-66 140h100z" />
    <glyph glyph-name="iacute" unicode="&#xed;" horiz-adv-x="270" 
d="M205 0h-190l6 49l59 14l52 394l-55 14l6 49h133l-60 -457l55 -14zM140 560l74 140h100l-104 -140h-70z" />
    <glyph glyph-name="icircumflex" unicode="&#xee;" horiz-adv-x="270" 
d="M205 0h-190l6 49l59 14l52 394l-55 14l6 49h133l-60 -457l55 -14zM234 700l101 -140h-75l-76 70l-94 -70h-75l139 140h80z" />
    <glyph glyph-name="idieresis" unicode="&#xef;" horiz-adv-x="270" 
d="M205 0h-190l6 49l59 14l52 394l-55 14l6 49h133l-60 -457l55 -14zM164 650q-3 -22 -20 -37t-39 -15t-35 15t-10 37t20 37t39 15t35 -15t10 -37zM314 650q-3 -22 -20 -37t-39 -15t-35 15t-10 37t20 37t39 15t35 -15t10 -37z" />
    <glyph glyph-name="ntilde" unicode="&#xf1;" horiz-adv-x="605" 
d="M196 365l-40 -302l55 -14l-6 -49h-190l6 49l59 14l52 394l-55 14l6 49h128l-11 -80q76 90 195 90q68 0 110.5 -36t34.5 -99l-44 -332l55 -14l-6 -49h-133l49 379q5 44 -19.5 62.5t-69.5 18.5q-109 0 -176 -95zM444 642q32 0 37 39h58q-8 -58 -38.5 -84t-68.5 -26
q-26 0 -88 26.5t-78 26.5q-33 0 -37 -39h-58q8 58 38.5 84t68.5 26q26 0 87.5 -26.5t78.5 -26.5z" />
    <glyph glyph-name="ograve" unicode="&#xf2;" horiz-adv-x="560" 
d="M248 -10q-127 0 -174.5 65t-29.5 204v2q18 139 83 204t192 65t175 -65t30 -204v-2q-18 -139 -83.5 -204t-192.5 -65zM257 56q89 0 129 45.5t55 157.5v2q15 112 -13 157.5t-117 45.5t-129.5 -45.5t-54.5 -157.5v-2q-15 -112 13 -157.5t117 -45.5zM322 700l36 -140h-70
l-66 140h100z" />
    <glyph glyph-name="oacute" unicode="&#xf3;" horiz-adv-x="560" 
d="M248 -10q-127 0 -174.5 65t-29.5 204v2q18 139 83 204t192 65t175 -65t30 -204v-2q-18 -139 -83.5 -204t-192.5 -65zM257 56q89 0 129 45.5t55 157.5v2q15 112 -13 157.5t-117 45.5t-129.5 -45.5t-54.5 -157.5v-2q-15 -112 13 -157.5t117 -45.5zM288 560l74 140h100
l-104 -140h-70z" />
    <glyph glyph-name="ocircumflex" unicode="&#xf4;" horiz-adv-x="560" 
d="M248 -10q-127 0 -174.5 65t-29.5 204v2q18 139 83 204t192 65t175 -65t30 -204v-2q-18 -139 -83.5 -204t-192.5 -65zM257 56q89 0 129 45.5t55 157.5v2q15 112 -13 157.5t-117 45.5t-129.5 -45.5t-54.5 -157.5v-2q-15 -112 13 -157.5t117 -45.5zM382 700l101 -140h-75
l-76 70l-94 -70h-75l139 140h80z" />
    <glyph glyph-name="otilde" unicode="&#xf5;" horiz-adv-x="560" 
d="M248 -10q-127 0 -174.5 65t-29.5 204v2q18 139 83 204t192 65t175 -65t30 -204v-2q-18 -139 -83.5 -204t-192.5 -65zM257 56q89 0 129 45.5t55 157.5v2q15 112 -13 157.5t-117 45.5t-129.5 -45.5t-54.5 -157.5v-2q-15 -112 13 -157.5t117 -45.5zM422 642q32 0 37 39h58
q-8 -58 -38.5 -84t-68.5 -26q-26 0 -88 26.5t-78 26.5q-33 0 -37 -39h-58q8 58 38.5 84t68.5 26q26 0 88 -26.5t78 -26.5z" />
    <glyph glyph-name="odieresis" unicode="&#xf6;" horiz-adv-x="560" 
d="M248 -10q-127 0 -174.5 65t-29.5 204v2q18 139 83 204t192 65t175 -65t30 -204v-2q-18 -139 -83.5 -204t-192.5 -65zM257 56q89 0 129 45.5t55 157.5v2q15 112 -13 157.5t-117 45.5t-129.5 -45.5t-54.5 -157.5v-2q-15 -112 13 -157.5t117 -45.5zM292 650q-3 -22 -20 -37
t-39 -15t-35 15t-10 37t20 37t39 15t35 -15t10 -37zM482 650q-3 -22 -20 -37t-39 -15t-35 15t-10 37t20 37t39 15t35 -15t10 -37z" />
    <glyph glyph-name="divide" unicode="&#xf7;" horiz-adv-x="550" 
d="M211 142q3 22 20 37t39 15t35 -15t10 -37t-20 -37t-39 -15t-35 15t-10 37zM265 548q2 22 19 37t39 15t35 -15t11 -37q-3 -22 -20 -37t-39 -15t-35 15t-10 37zM50 380h490l-10 -70h-490z" />
    <glyph glyph-name="oslash" unicode="&#xf8;" horiz-adv-x="560" 
d="M248 -10q-65 0 -107 16l-38 -56h-65l57 82q-74 61 -51 227v2q18 139 83 204t192 65q65 0 107 -16l39 56h65l-57 -83q72 -61 51 -226v-2q-18 -139 -83.5 -204t-192.5 -65zM127 259q-15 -117 14 -160l243 354q-31 11 -73 11q-89 0 -129.5 -45.5t-54.5 -157.5v-2zM257 56
q89 0 129 45.5t55 157.5v2q15 115 -15 159l-243 -353q26 -11 74 -11z" />
    <glyph glyph-name="ugrave" unicode="&#xf9;" horiz-adv-x="590" 
d="M417 155l40 302l-55 14l6 49h133l-60 -457l55 -14l-6 -49h-128l10 80q-76 -90 -195 -90q-68 0 -110.5 36t-33.5 99l44 332l-55 14l6 49h133l-49 -374q-6 -47 17.5 -66.5t70.5 -19.5q109 0 177 95zM315 700l36 -140h-70l-66 140h100z" />
    <glyph glyph-name="uacute" unicode="&#xfa;" horiz-adv-x="590" 
d="M417 155l40 302l-55 14l6 49h133l-60 -457l55 -14l-6 -49h-128l10 80q-76 -90 -195 -90q-68 0 -110.5 36t-33.5 99l44 332l-55 14l6 49h133l-49 -374q-6 -47 17.5 -66.5t70.5 -19.5q109 0 177 95zM281 560l74 140h100l-104 -140h-70z" />
    <glyph glyph-name="ucircumflex" unicode="&#xfb;" horiz-adv-x="590" 
d="M417 155l40 302l-55 14l6 49h133l-60 -457l55 -14l-6 -49h-128l10 80q-76 -90 -195 -90q-68 0 -110.5 36t-33.5 99l44 332l-55 14l6 49h133l-49 -374q-6 -47 17.5 -66.5t70.5 -19.5q109 0 177 95zM375 700l101 -140h-75l-76 70l-94 -70h-75l139 140h80z" />
    <glyph glyph-name="udieresis" unicode="&#xfc;" horiz-adv-x="590" 
d="M417 155l40 302l-55 14l6 49h133l-60 -457l55 -14l-6 -49h-128l10 80q-76 -90 -195 -90q-68 0 -110.5 36t-33.5 99l44 332l-55 14l6 49h133l-49 -374q-6 -47 17.5 -66.5t70.5 -19.5q109 0 177 95zM285 650q-3 -22 -20 -37t-39 -15t-35 15t-10 37t20 37t39 15t35 -15
t10 -37zM475 650q-3 -22 -20 -37t-39 -15t-35 15t-10 37t20 37t39 15t35 -15t10 -37z" />
    <glyph glyph-name="ydieresis" unicode="&#xff;" horiz-adv-x="565" 
d="M417 155l40 302l-55 14l6 49h133l-73 -555q-11 -85 -76 -125t-198 -40q-108 0 -176 41l9 73q75 -48 176 -48q176 0 187 87l16 120q-75 -83 -189 -83q-68 0 -110.5 36t-33.5 99l44 332l-55 14l6 49h133l-49 -374q-6 -47 17.5 -66.5t70.5 -19.5q109 0 177 95zM285 650
q-3 -22 -20 -37t-39 -15t-35 15t-10 37t20 37t39 15t35 -15t10 -37zM475 650q-3 -22 -20 -37t-39 -15t-35 15t-10 37t20 37t39 15t35 -15t10 -37z" />
    <glyph glyph-name="dotlessi" unicode="&#x131;" horiz-adv-x="270" 
d="M205 0h-190l6 49l59 14l52 394l-55 14l6 49h133l-60 -457l55 -14z" />
    <glyph glyph-name="OE" unicode="&#x152;" horiz-adv-x="924" 
d="M400 700h546l-21 -160h-51l-12 93h-282l-32 -240h192l26 67h49l-26 -201h-49l-9 67h-192l-34 -259h282l37 93h51l-21 -160h-546q-170 0 -221 81.5t-27 267.5l1 2q12 93 33 154.5t59.5 107.5t98.5 66.5t148 20.5zM425 67l75 566h-119q-64 -1 -104.5 -15.5t-67 -50.5
t-40.5 -85t-25 -131l-1 -2q-15 -101 -6.5 -163t47.5 -89.5t122 -29.5h119z" />
    <glyph glyph-name="oe" unicode="&#x153;" horiz-adv-x="939" 
d="M899 234h-381v-2q-11 -95 21 -134.5t120 -39.5q78 0 115.5 19.5t43.5 67.5v2h63v-2q-10 -155 -231 -155q-151 0 -190 97q-63 -97 -212 -97q-127 0 -174.5 65t-29.5 204v2q18 139 83 204t192 65q150 0 186 -98q65 98 211 98q123 0 164.5 -63.5t22.5 -206.5zM257 56
q89 0 129 45.5t55 157.5v2q15 112 -13 157.5t-117 45.5t-129.5 -45.5t-54.5 -157.5v-2q-15 -112 13 -157.5t117 -45.5zM707 462q-82 0 -124.5 -38.5t-56.5 -129.5v-2h298v2q11 94 -14.5 131t-102.5 37z" />
    <glyph glyph-name="Ydieresis" unicode="&#x178;" horiz-adv-x="670" 
d="M353 304l215 330l-65 17l7 49h204l-7 -51l-59 -15l-273 -401l-22 -167l65 -17l-6 -49h-214l6 49l69 17l22 167l-167 401l-55 15l7 51h218l-7 -49l-69 -17zM374 830q-3 -22 -20 -37t-39 -15t-35 15t-10 37t20 37t39 15t35 -15t10 -37zM564 830q-3 -22 -20 -37t-39 -15
t-35 15t-10 37t20 37t39 15t35 -15t10 -37z" />
    <glyph glyph-name="circumflex" unicode="&#x2c6;" 
d="M387 700l101 -140h-75l-76 70l-94 -70h-75l139 140h80z" />
    <glyph glyph-name="caron" unicode="&#x2c7;" 
d="M288 560l-101 140h75l75 -70l95 70h75l-139 -140h-80z" />
    <glyph glyph-name="breve" unicode="&#x2d8;" 
d="M327 550q-170 0 -150 150h70q-7 -49 12 -67t76 -18t81 18.5t31 66.5h70q-20 -150 -190 -150z" />
    <glyph glyph-name="dotaccent" unicode="&#x2d9;" 
d="M392 650q-3 -22 -20 -37t-39 -15t-35 15t-10 37t20 37t39 15t35 -15t10 -37z" />
    <glyph glyph-name="ring" unicode="&#x2da;" 
d="M263 635q4 31 29 53t56 22t50 -22t15 -53t-29 -53t-56 -22t-50 22t-15 53zM383 635q2 19 -9 32t-30 13t-34 -13t-17 -32t9 -32t30 -13t34 13t17 32z" />
    <glyph glyph-name="ogonek" unicode="&#x2db;" 
d="M222 -96q-7 -54 48 -54q24 0 46 10l9 -46q-32 -14 -72 -14q-48 0 -72.5 24t-17.5 71q7 52 48 86t84 43l40 -24q-41 -8 -74.5 -34t-38.5 -62z" />
    <glyph glyph-name="tilde" unicode="&#x2dc;" 
d="M427 642q32 0 37 39h58q-8 -58 -38.5 -84t-68.5 -26q-25 0 -87 26.5t-79 26.5q-33 0 -37 -39h-58q8 58 38.5 84t68.5 26q25 0 87 -26.5t79 -26.5z" />
    <glyph glyph-name="hungarumlaut" unicode="&#x2dd;" 
d="M238 560l74 140h95l-99 -140h-70zM348 560l74 140h95l-99 -140h-70z" />
    <glyph glyph-name="endash" unicode="&#x2013;" horiz-adv-x="500" 
d="M468 333l-8 -67h-410l8 67h410z" />
    <glyph glyph-name="emdash" unicode="&#x2014;" horiz-adv-x="1000" 
d="M968 333l-8 -67h-910l8 67h910z" />
    <glyph glyph-name="quoteleft" unicode="&#x2018;" horiz-adv-x="180" 
d="M77 563q11 87 101 162l26 -22q-45 -40 -48 -67q-2 -16 12.5 -35.5t11.5 -39.5q-2 -21 -19 -36t-39 -15q-21 0 -34.5 15t-10.5 38z" />
    <glyph glyph-name="quoteright" unicode="&#x2019;" horiz-adv-x="185" 
d="M203 657q-11 -87 -101 -162l-26 22q44 41 47 67q2 17 -12.5 36.5t-11.5 38.5q3 21 20 36t39 15q21 0 34.5 -15t10.5 -38z" />
    <glyph glyph-name="quotesinglbase" unicode="&#x201a;" horiz-adv-x="185" 
d="M122 41q-6 -50 -31.5 -87t-69.5 -75l-27 22q45 40 48 67q2 17 -12.5 36.5t-11.5 38.5q3 21 20 36t39 15q21 0 34.5 -15t10.5 -38z" />
    <glyph glyph-name="quotedblleft" unicode="&#x201c;" horiz-adv-x="310" 
d="M77 563q11 87 101 162l26 -22q-45 -40 -48 -67q-2 -16 12.5 -35.5t11.5 -39.5q-2 -21 -19 -36t-39 -15q-21 0 -34.5 15t-10.5 38zM207 563q11 87 101 162l26 -22q-45 -40 -48 -67q-2 -16 12.5 -35.5t11.5 -39.5q-2 -21 -19 -36t-39 -15q-21 0 -34.5 15t-10.5 38z" />
    <glyph glyph-name="quotedblright" unicode="&#x201d;" horiz-adv-x="310" 
d="M203 657q-11 -87 -101 -162l-26 22q44 41 47 67q2 17 -12.5 36.5t-11.5 38.5q3 21 20 36t39 15q21 0 34.5 -15t10.5 -38zM333 657q-11 -87 -101 -162l-26 22q44 41 47 67q2 17 -12.5 36.5t-11.5 38.5q3 21 20 36t39 15q21 0 34.5 -15t10.5 -38z" />
    <glyph glyph-name="quotedblbase" unicode="&#x201e;" horiz-adv-x="310" 
d="M122 41q-6 -50 -31.5 -87t-69.5 -75l-27 22q45 40 48 67q2 17 -12.5 36.5t-11.5 38.5q3 21 20 36t39 15q21 0 34.5 -15t10.5 -38zM252 41q-6 -50 -31.5 -87t-69.5 -75l-27 22q45 40 48 67q2 17 -12.5 36.5t-11.5 38.5q3 21 20 36t39 15q21 0 34.5 -15t10.5 -38z" />
    <glyph glyph-name="dagger" unicode="&#x2020;" horiz-adv-x="380" 
d="M87 585l123 -10l7 125h70l-27 -125l127 10l-10 -70l-123 10l-25 -265h-70l45 265l-127 -10z" />
    <glyph glyph-name="daggerdbl" unicode="&#x2021;" horiz-adv-x="410" 
d="M62 325l124 -10l9 105l19 105l-127 -10l10 70l123 -10l7 125h70l-27 -125l127 10l-10 -70l-123 10l-9 -105l-19 -105l126 10l-9 -70l-124 10l-24 -265h-70l44 265l-126 -10z" />
    <glyph glyph-name="bullet" unicode="&#x2022;" horiz-adv-x="410" 
d="M110 300q5 43 40 73.5t78 30.5t69 -30.5t21 -73.5q-6 -43 -40.5 -73.5t-77.5 -30.5t-69.5 30.5t-20.5 73.5z" />
    <glyph glyph-name="ellipsis" unicode="&#x2026;" horiz-adv-x="1000" 
d="M98 42q3 22 20 37t39 15t35 -15t10 -37t-20 -37t-39 -15t-35 15t-10 37zM423 42q3 22 20 37t39 15t35 -15t10 -37t-20 -37t-39 -15t-35 15t-10 37zM748 42q3 22 20 37t39 15t35 -15t10 -37t-20 -37t-39 -15t-35 15t-10 37z" />
    <glyph glyph-name="perthousand" unicode="&#x2030;" horiz-adv-x="1210" 
d="M164 560l-10 -80q-6 -40 12.5 -57.5t61.5 -17.5q42 0 65 17.5t29 57.5l10 80q5 40 -13.5 57.5t-60.5 17.5q-43 0 -66 -17.5t-28 -57.5zM408 555l-10 -70q-18 -145 -179 -145q-159 0 -141 145l10 70q18 145 179 145q159 0 141 -145zM215 0h-92l534 700h92zM707 140l10 80
q6 40 -12.5 57.5t-61.5 17.5q-42 0 -65 -17.5t-29 -57.5l-10 -80q-5 -40 13.5 -57.5t60.5 -17.5q43 0 66 17.5t28 57.5zM464 145l9 70q18 145 179 145q159 0 141 -145l-9 -70q-20 -145 -179 -145q-161 0 -141 145zM1077 140l10 80q6 40 -12.5 57.5t-61.5 17.5
q-42 0 -65 -17.5t-29 -57.5l-10 -80q-5 -40 13.5 -57.5t60.5 -17.5q43 0 66 17.5t28 57.5zM834 145l9 70q18 145 179 145q159 0 141 -145l-9 -70q-20 -145 -179 -145q-161 0 -141 145z" />
    <glyph glyph-name="guilsinglleft" unicode="&#x2039;" horiz-adv-x="170" 
d="M45 345l118 65l-8 -65l-61 -45l49 -45l-8 -65l-102 65z" />
    <glyph glyph-name="guilsinglright" unicode="&#x203a;" horiz-adv-x="170" 
d="M143 255l-118 -65l8 65l61 45l-49 45l8 65l102 -65z" />
    <glyph glyph-name="fraction" unicode="&#x2044;" horiz-adv-x="600" 
d="M95 0h-92l534 700h92z" />
    <glyph glyph-name="Euro" unicode="&#x20ac;" horiz-adv-x="670" 
d="M65 460h95q24 122 105.5 181t206.5 59q120 0 203 -54l-38 -66q-78 47 -175 47q-88 0 -144 -35t-77 -132h339l-31 -70h-318l-12 -90h300l-31 -70h-277q-3 -51 9.5 -85t38.5 -51.5t56.5 -24t72.5 -6.5q98 0 187 47l21 -64q-102 -56 -218 -56q-126 0 -191 58.5t-57 181.5
h-95l9 70h94l12 90h-94z" />
    <glyph glyph-name="trademark" unicode="&#x2122;" horiz-adv-x="400" 
d="M121 520l21 161h-58l3 19h137l-3 -19h-58l-21 -161h-21zM294 700l40 -124l74 124h25l-24 -180h-21l21 147l-68 -113h-20l-38 113l-17 -147h-21l24 180h25z" />
    <glyph glyph-name="minus" unicode="&#x2212;" horiz-adv-x="550" 
d="M50 380h490l-10 -70h-490z" />
    <glyph glyph-name="approxequal" unicode="&#x2248;" horiz-adv-x="550" 
d="M176 424q-44 0 -103 -31l-13 69q65 39 128 39q49 0 127.5 -24t112.5 -24q44 0 103 31l13 -69q-61 -39 -128 -39q-49 0 -127.5 24t-112.5 24zM152 238q-44 0 -103 -31l-13 69q61 39 128 39q49 0 127.5 -24t112.5 -24q44 0 103 31l13 -69q-65 -39 -128 -39q-49 0 -127.5 24
t-112.5 24z" />
    <glyph glyph-name="notequal" unicode="&#x2260;" horiz-adv-x="550" 
d="M78 103l76 107h-127l9 70h167l93 130h-243l10 70h283l100 141l56 -34l-76 -107h127l-10 -70h-168l-92 -130h243l-9 -70h-284l-99 -141z" />
    <glyph glyph-name="lessequal" unicode="&#x2264;" horiz-adv-x="550" 
d="M518 220l-468 160l9 70l511 160l-10 -75l-396 -120l364 -120zM500 80l-470 155l10 75l470 -155z" />
    <glyph glyph-name="greaterequal" unicode="&#x2265;" horiz-adv-x="550" 
d="M540 380l-512 -160l10 75l395 120l-363 120l10 75l469 -160zM520 235l-510 -155l10 75l510 155z" />
    </font>
</defs>
</svg>
